<svg width="100" height="63" viewBox="0 0 100 63" fill="none" xmlns="http://www.w3.org/2000/svg">
<path d="M1.32 29.92C1.32 27.1467 1.92 24.68 3.12 22.52C4.32 20.3333 5.98667 18.64 8.12 17.44C10.28 16.2133 12.72 15.6 15.44 15.6C18.7733 15.6 21.6267 16.48 24 18.24C26.3733 20 27.96 22.4 28.76 25.44H21.24C20.68 24.2667 19.88 23.3733 18.84 22.76C17.8267 22.1467 16.6667 21.84 15.36 21.84C13.2533 21.84 11.5467 22.5733 10.24 24.04C8.93333 25.5067 8.28 27.4667 8.28 29.92C8.28 32.3733 8.93333 34.3333 10.24 35.8C11.5467 37.2667 13.2533 38 15.36 38C16.6667 38 17.8267 37.6933 18.84 37.08C19.88 36.4667 20.68 35.5733 21.24 34.4H28.76C27.96 37.44 26.3733 39.84 24 41.6C21.6267 43.3333 18.7733 44.2 15.44 44.2C12.72 44.2 10.28 43.6 8.12 42.4C5.98667 41.1733 4.32 39.48 3.12 37.32C1.92 35.16 1.32 32.6933 1.32 29.92ZM31.5888 32.8C31.5888 30.5067 32.0154 28.4933 32.8688 26.76C33.7488 25.0267 34.9354 23.6933 36.4288 22.76C37.9221 21.8267 39.5888 21.36 41.4288 21.36C43.0021 21.36 44.3754 21.68 45.5488 22.32C46.7488 22.96 47.6688 23.8 48.3088 24.84V21.68H55.1488V44H48.3088V40.84C47.6421 41.88 46.7088 42.72 45.5088 43.36C44.3354 44 42.9621 44.32 41.3888 44.32C39.5754 44.32 37.9221 43.8533 36.4288 42.92C34.9354 41.96 33.7488 40.6133 32.8688 38.88C32.0154 37.12 31.5888 35.0933 31.5888 32.8ZM48.3088 32.84C48.3088 31.1333 47.8288 29.7867 46.8688 28.8C45.9354 27.8133 44.7888 27.32 43.4288 27.32C42.0688 27.32 40.9088 27.8133 39.9488 28.8C39.0154 29.76 38.5488 31.0933 38.5488 32.8C38.5488 34.5067 39.0154 35.8667 39.9488 36.88C40.9088 37.8667 42.0688 38.36 43.4288 38.36C44.7888 38.36 45.9354 37.8667 46.8688 36.88C47.8288 35.8933 48.3088 34.5467 48.3088 32.84ZM63.5372 19.36C62.3372 19.36 61.3505 19.0133 60.5772 18.32C59.8305 17.6 59.4572 16.72 59.4572 15.68C59.4572 14.6133 59.8305 13.7333 60.5772 13.04C61.3505 12.32 62.3372 11.96 63.5372 11.96C64.7105 11.96 65.6705 12.32 66.4172 13.04C67.1905 13.7333 67.5772 14.6133 67.5772 15.68C67.5772 16.72 67.1905 17.6 66.4172 18.32C65.6705 19.0133 64.7105 19.36 63.5372 19.36ZM66.9372 21.68V44H60.0972V21.68H66.9372ZM82.0541 44.32C79.8674 44.32 77.8941 43.8533 76.1341 42.92C74.4007 41.9867 73.0274 40.6533 72.0141 38.92C71.0274 37.1867 70.5341 35.16 70.5341 32.84C70.5341 30.5467 71.0407 28.5333 72.0541 26.8C73.0674 25.04 74.4541 23.6933 76.2141 22.76C77.9741 21.8267 79.9474 21.36 82.1341 21.36C84.3207 21.36 86.2941 21.8267 88.0541 22.76C89.8141 23.6933 91.2007 25.04 92.2141 26.8C93.2274 28.5333 93.7341 30.5467 93.7341 32.84C93.7341 35.1333 93.2141 37.16 92.1741 38.92C91.1607 40.6533 89.7607 41.9867 87.9741 42.92C86.2141 43.8533 84.2407 44.32 82.0541 44.32ZM82.0541 38.4C83.3607 38.4 84.4674 37.92 85.3741 36.96C86.3074 36 86.7741 34.6267 86.7741 32.84C86.7741 31.0533 86.3207 29.68 85.4141 28.72C84.5341 27.76 83.4407 27.28 82.1341 27.28C80.8007 27.28 79.6941 27.76 78.8141 28.72C77.9341 29.6533 77.4941 31.0267 77.4941 32.84C77.4941 34.6267 77.9207 36 78.7741 36.96C79.6541 37.92 80.7474 38.4 82.0541 38.4Z" fill="white"/>
<circle cx="58.1632" cy="41.8367" r="4.08163" fill="#001AFF"/>
<path d="M67.1446 20.3804C65.9446 20.3804 64.9579 20.0337 64.1846 19.3404C63.4379 18.6204 63.0646 17.7404 63.0646 16.7004C63.0646 15.6337 63.4379 14.7537 64.1846 14.0604C64.9579 13.3404 65.9446 12.9804 67.1446 12.9804C68.3179 12.9804 69.2779 13.3404 70.0246 14.0604C70.7979 14.7537 71.1846 15.6337 71.1846 16.7004C71.1846 17.7404 70.7979 18.6204 70.0246 19.3404C69.2779 20.0337 68.3179 20.3804 67.1446 20.3804ZM70.5446 22.7004V45.0204H63.7046V22.7004H70.5446ZM85.6615 45.3404C83.4748 45.3404 81.5015 44.8737 79.7415 43.9404C78.0082 43.0071 76.6348 41.6737 75.6215 39.9404C74.6348 38.2071 74.1415 36.1804 74.1415 33.8604C74.1415 31.5671 74.6482 29.5537 75.6615 27.8204C76.6748 26.0604 78.0615 24.7137 79.8215 23.7804C81.5815 22.8471 83.5548 22.3804 85.7415 22.3804C87.9282 22.3804 89.9015 22.8471 91.6615 23.7804C93.4215 24.7137 94.8082 26.0604 95.8215 27.8204C96.8348 29.5537 97.3415 31.5671 97.3415 33.8604C97.3415 36.1537 96.8215 38.1804 95.7815 39.9404C94.7682 41.6737 93.3682 43.0071 91.5815 43.9404C89.8215 44.8737 87.8482 45.3404 85.6615 45.3404ZM85.6615 39.4204C86.9682 39.4204 88.0748 38.9404 88.9815 37.9804C89.9148 37.0204 90.3815 35.6471 90.3815 33.8604C90.3815 32.0737 89.9282 30.7004 89.0215 29.7404C88.1415 28.7804 87.0482 28.3004 85.7415 28.3004C84.4082 28.3004 83.3015 28.7804 82.4215 29.7404C81.5415 30.6737 81.1015 32.0471 81.1015 33.8604C81.1015 35.6471 81.5282 37.0204 82.3815 37.9804C83.2615 38.9404 84.3548 39.4204 85.6615 39.4204Z" fill="#001AFF"/>
</svg>
