<svg width="76" height="48" viewBox="0 0 76 48" fill="none" xmlns="http://www.w3.org/2000/svg">
<path d="M1.056 23.736C1.056 21.5173 1.536 19.544 2.496 17.816C3.456 16.0667 4.78933 14.712 6.496 13.752C8.224 12.7707 10.176 12.28 12.352 12.28C15.0187 12.28 17.3013 12.984 19.2 14.392C21.0987 15.8 22.368 17.72 23.008 20.152H16.992C16.544 19.2133 15.904 18.4987 15.072 18.008C14.2613 17.5173 13.3333 17.272 12.288 17.272C10.6027 17.272 9.23733 17.8587 8.192 19.032C7.14667 20.2053 6.624 21.7733 6.624 23.736C6.624 25.6987 7.14667 27.2667 8.192 28.44C9.23733 29.6133 10.6027 30.2 12.288 30.2C13.3333 30.2 14.2613 29.9547 15.072 29.464C15.904 28.9733 16.544 28.2587 16.992 27.32H23.008C22.368 29.752 21.0987 31.672 19.2 33.08C17.3013 34.4667 15.0187 35.16 12.352 35.16C10.176 35.16 8.224 34.68 6.496 33.72C4.78933 32.7387 3.456 31.384 2.496 29.656C1.536 27.928 1.056 25.9547 1.056 23.736ZM25.271 26.04C25.271 24.2053 25.6123 22.5947 26.295 21.208C26.999 19.8213 27.9483 18.7547 29.143 18.008C30.3377 17.2613 31.671 16.888 33.143 16.888C34.4017 16.888 35.5003 17.144 36.439 17.656C37.399 18.168 38.135 18.84 38.647 19.672V17.144H44.119V35H38.647V32.472C38.1137 33.304 37.367 33.976 36.407 34.488C35.4683 35 34.3697 35.256 33.111 35.256C31.6603 35.256 30.3377 34.8827 29.143 34.136C27.9483 33.368 26.999 32.2907 26.295 30.904C25.6123 29.496 25.271 27.8747 25.271 26.04ZM38.647 26.072C38.647 24.7067 38.263 23.6293 37.495 22.84C36.7483 22.0507 35.831 21.656 34.743 21.656C33.655 21.656 32.727 22.0507 31.959 22.84C31.2123 23.608 30.839 24.6747 30.839 26.04C30.839 27.4053 31.2123 28.4933 31.959 29.304C32.727 30.0933 33.655 30.488 34.743 30.488C35.831 30.488 36.7483 30.0933 37.495 29.304C38.263 28.5147 38.647 27.4373 38.647 26.072ZM50.8298 15.288C49.8698 15.288 49.0804 15.0107 48.4618 14.456C47.8644 13.88 47.5658 13.176 47.5658 12.344C47.5658 11.4907 47.8644 10.7867 48.4618 10.232C49.0804 9.656 49.8698 9.368 50.8298 9.368C51.7684 9.368 52.5364 9.656 53.1338 10.232C53.7524 10.7867 54.0618 11.4907 54.0618 12.344C54.0618 13.176 53.7524 13.88 53.1338 14.456C52.5364 15.0107 51.7684 15.288 50.8298 15.288ZM53.5498 17.144V35H48.0778V17.144H53.5498ZM65.6433 35.256C63.8939 35.256 62.3153 34.8827 60.9073 34.136C59.5206 33.3893 58.4219 32.3227 57.6113 30.936C56.8219 29.5493 56.4273 27.928 56.4273 26.072C56.4273 24.2373 56.8326 22.6267 57.6432 21.24C58.4539 19.832 59.5633 18.7547 60.9713 18.008C62.3793 17.2613 63.9579 16.888 65.7073 16.888C67.4566 16.888 69.0353 17.2613 70.4433 18.008C71.8513 18.7547 72.9606 19.832 73.7713 21.24C74.5819 22.6267 74.9873 24.2373 74.9873 26.072C74.9873 27.9067 74.5713 29.528 73.7393 30.936C72.9286 32.3227 71.8086 33.3893 70.3793 34.136C68.9713 34.8827 67.3926 35.256 65.6433 35.256ZM65.6433 30.52C66.6886 30.52 67.5739 30.136 68.2993 29.368C69.0459 28.6 69.4193 27.5013 69.4193 26.072C69.4193 24.6427 69.0566 23.544 68.3313 22.776C67.6273 22.008 66.7526 21.624 65.7073 21.624C64.6406 21.624 63.7553 22.008 63.0513 22.776C62.3473 23.5227 61.9953 24.6213 61.9953 26.072C61.9953 27.5013 62.3366 28.6 63.0193 29.368C63.7233 30.136 64.5979 30.52 65.6433 30.52Z" fill="white"/>
<circle cx="51" cy="12" r="4" fill="#001AFF"/>
</svg>
